<?xml version="1.0"?>
<svg xmlns="http://www.w3.org/2000/svg" width="300" height="300" viewBox="0 0 135 135">
<path fill="#8e7650" d="m 56.721681,48.541548 21.189606,0.06232 10.968739,18.946003 -10.84409,18.696711 -21.37658,0 -10.906413,-18.759035 z" />
<g fill="#ffc200"> 
 <path d="M 56.7219,0.01584202 77.911507,0.07816637 88.880246,19.02417 l -10.84409,18.696709 -21.37658,0 -10.906414,-18.759033 z" />
 <path d="M 56.7219,97.294954 77.911507,97.357279 88.880246,116.30329 78.036156,135 56.659576,135 45.753162,116.24097 Z" />
 <path d="m 98.666142,72.694267 21.189608,0.06232 10.96874,18.946004 -10.84409,18.696719 -21.376583,0 -10.906414,-18.759039 z" />
 <path d="m 98.666356,24.329153 21.189604,0.06232 10.96874,18.946001 -10.84409,18.696715 -21.376578,0 -10.906414,-18.75903 z" />
 <path d="m 14.946578,24.329157 21.1464,0.06232 10.94636,18.945997 -10.821965,18.696715 -21.332992,0 -10.8841774,-18.75903 z" />
 <path d="m 14.968739,72.694267 21.189607,0.06232 10.968734,18.946004 -10.844086,18.696719 -21.376579,0 L 4,91.640276 Z" />
</g>
</svg>